<svg xmlns="http://www.w3.org/2000/svg" viewBox="0 0 2346 840.3"><defs><style>.a{fill:#fff;}</style></defs><title>logo-white</title><path class="a" d="M2115.6,233.1V80H1687.1l-70.6,511.4L1546.8,80H1392.3l17.3,136.5c-17.9-35-81.1-136.5-220.4-136.5H1034.5l-.6,745.4L921.3,80H718.8L602.3,852.2V80H408.6L338.8,513.8,270.8,80H77V919.6H229.6V514.9L299,919.6h81.2l68.4-404.7V919.6H742.8l17.8-129.1H879l17.8,129.1,288.9.2h.2v-.2h.3V647.1l35.4-5.1,73.3,277.8h149.4v-.2h.4l-96.2-325.5c48.7-35.9,103.8-126.9,89.1-214h0l90.8,540.2,177.7-.6,121.4-761v761h288.1v-151H1978.9V576.1h136.7V422.8H1978.9V233.1ZM778.6,657.4l41.9-359.1,43.4,359.1Zm443.5-165.8a83.1,83.1,0,0,1-35.9,8.4V230h.8c11.9-.1,101,3.5,101,133.5,0,68-30.3,110.9-65.9,128.1ZM2423,768.5V919.4H2142V79.8h151.3V768.5Z" transform="translate(-77 -79.8)"/></svg>